<?xml version="1.0" encoding="UTF-8" standalone="no"?>
<!DOCTYPE svg PUBLIC "-//W3C//DTD SVG 1.1//EN" "http://www.w3.org/Graphics/SVG/1.1/DTD/svg11.dtd">
<svg width="100%" height="100%" viewBox="0 0 2000 2000" version="1.1" xmlns="http://www.w3.org/2000/svg" xmlns:xlink="http://www.w3.org/1999/xlink" xml:space="preserve" xmlns:serif="http://www.serif.com/" style="fill-rule:evenodd;clip-rule:evenodd;stroke-linejoin:round;stroke-miterlimit:2;">
    <g id="txt" transform="matrix(1.721037,0,0,1.840467,-883.978963,-123.937166)">
        <path d="M862.84,953.871C845.873,953.871 831.986,953.599 821.179,953.056C810.371,952.513 801.946,951.046 795.903,948.655C789.861,946.264 785.561,942.244 783.004,936.593C780.448,930.942 778.879,923.064 778.298,912.958C777.717,902.851 777.426,889.866 777.426,874L777.426,725.668L882.014,725.668C882.014,725.668 882.014,790.869 916.877,790.869C882.014,790.869 916.877,790.869 916.877,790.869L916.877,953.871L862.84,953.871Z" style="fill-rule:nonzero;"/>
        <rect x="923.85" y="725.668" width="104.588" height="228.203" style="fill-rule:nonzero;"/>
        <path d="M1209.724,833.249L1146.971,833.249C1143.485,833.249 1141.509,833.521 1141.044,834.064C1140.579,834.608 1140.347,836.51 1140.347,839.77L1209.724,839.77L1209.724,921.271C1209.724,921.271 1156.983,921.271 1209.724,921.271C1156.983,921.271 1139.998,933.944 1139.998,953.871C1139.998,933.944 1139.998,953.871 1139.998,953.871L1035.41,953.871L1035.41,805.539C1035.41,789.456 1035.701,776.416 1036.282,766.419C1036.863,756.421 1038.432,748.597 1040.988,742.946C1043.545,737.296 1047.845,733.275 1053.888,730.884C1059.93,728.493 1068.356,727.026 1079.163,726.483C1089.97,725.94 1103.857,725.668 1120.824,725.668L1209.724,725.668L1209.724,833.249Z" style="fill-rule:nonzero;"/>
        <path d="M1366.606,953.871L1262.018,953.871C1262.018,953.871 1262.018,831.619 1216.696,831.619C1262.018,831.619 1216.696,831.619 1216.696,831.619L1216.696,725.668L1411.928,725.668L1411.928,831.619C1411.928,831.619 1366.606,831.619 1411.928,831.619C1366.606,831.619 1366.606,953.871 1366.606,953.871Z" style="fill-rule:nonzero;"/>
    </g>
    <g id="mark" transform="matrix(1.601139,0,0,5.075721,-513.419674,-3822.653425)">
        <path d="M977.441,904.322C977.441,904.322 980.824,825.7 1178.214,825.7L1178.214,948.653C1178.214,972.7 1108.964,972.7 991.354,972.7L712.214,972.7C712.214,972.7 703.721,904.322 977.441,904.322Z" style="fill:rgb(81,148,255);"/>
    </g>
</svg>
